<svg width="88px" height="110px" viewBox="0 0 88 110" version="1.1" xmlns="http://www.w3.org/2000/svg" xmlns:xlink="http://www.w3.org/1999/xlink">
    <defs>
        <polygon id="path-1" points="0 0.24553913 14.8131004 0.24553913 14.8131004 21.8367855 0 21.8367855"></polygon>
        <polygon id="path-3" points="0 0.0895304348 14.8131004 0.0895304348 14.8131004 21.6810957 0 21.6810957"></polygon>
    </defs>
    <g id="Page-1" stroke="none" stroke-width="1" fill="none" fill-rule="evenodd">
        <g id="nav">
            <g id="Group-14">
                <g id="Group-16">
                    <g id="Group-3" transform="translate(0.000000, 10.381130)">
                        <mask id="mask-2" fill="white">
                            <use xlink:href="#path-1"></use>
                        </mask>
                        <g id="Clip-2"></g>
                        <path d="M12.0187032,5.94481449 C11.0872375,3.83408986 9.67510758,2.7784087 7.75213285,2.7784087 C5.4384,2.7784087 3.96622671,3.98458261 3.96622671,6.03536522 C3.96622671,7.06075652 4.35698484,7.81449565 5.10800289,8.26693043 C5.88920144,8.71904638 7.12120144,9.17148116 8.8338657,9.62391594 C10.3660823,10.015771 11.1774614,10.2571333 12.289057,10.8603797 C13.941678,11.7046696 14.7228765,12.9108435 14.8131004,15.1121188 C14.8131004,19.5752493 12.0787466,21.8367855 7.84235668,21.8367855 C3.78577906,21.8367855 0.811251986,19.6355101 -0.000127075812,15.5645536 L2.46387292,14.5994232 C3.27525199,17.735858 5.07782238,19.3039159 7.84235668,19.3039159 C10.486169,19.3039159 12.1689704,17.9769014 12.1689704,15.4740029 C12.1689704,14.5994232 11.8083928,13.9362348 11.4176347,13.5440609 C11.2076419,13.3329884 10.8769271,13.1522058 10.3962628,12.9711043 C9.46479711,12.5789304 8.92377184,12.3981478 7.39155523,12.0362638 C5.91938195,11.6743797 5.19822671,11.4633072 3.99608953,10.8603797 C2.31360578,9.9858 1.44218339,8.65878551 1.32209675,6.12591594 C1.32209675,4.40672754 1.89298484,2.98948116 3.03476101,1.90414783 C4.17653718,0.788205797 5.7389343,0.24553913 7.75213285,0.24553913 C11.1472809,0.24553913 13.3707899,2.20545217 14.3324361,4.76861159 L12.0187032,5.94481449 Z" id="Fill-1" fill="#FEFEFE" mask="url(#mask-2)"></path>
                    </g>
                    <polygon id="Fill-4" fill="#FEFEFE" points="50.0383884 9.56521739e-05 50.0383884 21.1089362 63.6793415 21.1089362 63.6793415 18.5760667 52.6822007 18.5760667 52.6822007 11.127313 63.6262874 11.127313 63.6262874 8.59444348 52.6822007 8.59444348 52.6822007 2.53296522 63.3791249 2.53296522 63.3791249 9.56521739e-05"></polygon>
                    <g id="Group-10" transform="translate(0.000000, 77.337652)">
                        <g id="Group-7" transform="translate(0.000000, 10.840580)">
                            <mask id="mask-4" fill="white">
                                <use xlink:href="#path-3"></use>
                            </mask>
                            <g id="Clip-6"></g>
                            <path d="M12.0187032,5.78912464 C11.0872375,3.6784 9.67510758,2.62271884 7.75213285,2.62271884 C5.4384,2.62271884 3.96622671,3.82889275 3.96622671,5.87967536 C3.96622671,6.90506667 4.35698484,7.6588058 5.10800289,8.11124058 C5.88920144,8.56335652 7.12120144,9.0157913 8.8338657,9.46822609 C10.3660823,9.86008116 11.1774614,10.1014435 12.289057,10.7046899 C13.941678,11.5489797 14.7228765,12.7551536 14.8131004,14.956429 C14.8131004,19.4195594 12.0787466,21.6810957 7.84235668,21.6810957 C3.78577906,21.6810957 0.811251986,19.4798203 -0.000127075812,15.4088638 L2.46387292,14.4437333 C3.27525199,17.5798493 5.07782238,19.1482261 7.84235668,19.1482261 C10.486169,19.1482261 12.1689704,17.8212116 12.1689704,15.318313 C12.1689704,14.4437333 11.8083928,13.7805449 11.4176347,13.388371 C11.2076419,13.1772986 10.8769271,12.9965159 10.3962628,12.8154145 C9.46479711,12.4232406 8.92377184,12.242458 7.39155523,11.8805739 C5.91938195,11.5186899 5.19822671,11.3076174 3.99608953,10.7046899 C2.31360578,9.83011014 1.44218339,8.50309565 1.32209675,5.97022609 C1.32209675,4.25103768 1.89298484,2.8337913 3.03476101,1.74845797 C4.17653718,0.632515942 5.7389343,0.0895304348 7.75213285,0.0895304348 C11.1472809,0.0895304348 13.3707899,2.04976232 14.3324361,4.61292174 L12.0187032,5.78912464 Z" id="Fill-5" fill="#FEFEFE" mask="url(#mask-4)"></path>
                        </g>
                        <path d="M50.0382931,0.107927536 L52.6824231,0.107927536 L52.6824231,14.0699565 C52.6824231,16.965029 54.4551307,18.924942 57.4900188,18.924942 C60.5245892,18.924942 62.2972968,16.965029 62.2972968,14.0699565 L62.2972968,0.107927536 L64.9414267,0.107927536 L64.9414267,13.8891739 C64.9414267,16.2412609 64.250452,18.0806522 62.838322,19.4376377 C61.4258744,20.7946232 59.6531668,21.4581304 57.4900188,21.4581304 C55.3265531,21.4581304 53.5538455,20.7946232 52.1417155,19.4376377 C50.7292679,18.0806522 50.0382931,16.2412609 50.0382931,13.8891739 L50.0382931,0.107927536 Z" id="Fill-8" fill="#FEFEFE"></path>
                    </g>
                    <polygon id="Fill-11" fill="#FEFEFE" points="21.9951394 45.9190696 24.8193993 45.9190696 29.2965978 57.6195623 33.7734787 45.9190696 36.5977386 45.9190696 36.5977386 67.0279101 33.9539264 67.0279101 33.9539264 51.5580841 30.2881069 60.9667507 28.3050888 60.9667507 24.6392693 51.5580841 24.6392693 67.0279101 21.9951394 67.0279101"></polygon>
                    <path d="M77.7875523,35.0512609 L70.3059639,56.1601014 L73.04,56.1601014 L74.9331119,50.521087 L83.1660361,50.521087 L85.0588303,56.1601014 L87.7931841,56.1601014 L87.7931841,56.1591449 L80.311278,35.0512609 L77.7875523,35.0512609 Z M79.0497329,38.489 L82.2946137,47.9878986 L75.8045343,47.9878986 L79.0497329,38.489 Z" id="Fill-12" fill="#FEFEFE"></path>
                    <polygon id="Fill-13" fill="#FEFEFE" points="23.0003726 21.4500638 22.204878 19.449658 22.4272606 19.3603826 41.6455711 10.6066145 41.9114773 10.5001217 42.7069718 12.5008464 42.4874484 12.5885275 23.2691379 21.3426145"></polygon>
                    <polygon id="Fill-14" fill="#FEFEFE" points="44.511226 56.7460667 43.7157314 54.7456609 43.9381141 54.6563855 63.1564245 45.9026174 63.4223307 45.7961246 64.2178253 47.7968493 63.9983018 47.8845304 44.7799913 56.6386174"></polygon>
                    <polygon id="Fill-15" fill="#FEFEFE" points="23.0491379 99.0425014 22.2536433 97.0420957 22.476026 96.9528203 41.6943365 88.1990522 41.9602426 88.0925594 42.7557372 90.0932841 42.5362137 90.1809652 23.3179032 98.9350522"></polygon>
                </g>
            </g>
        </g>
    </g>
</svg>